<?xml version="1.0" encoding="utf-8"?>
<!-- Generator: Adobe Illustrator 19.1.0, SVG Export Plug-In . SVG Version: 6.00 Build 0)  -->
<svg version="1.1" id="Layer_1" xmlns="http://www.w3.org/2000/svg" xmlns:xlink="http://www.w3.org/1999/xlink" x="0px" y="0px"
	 viewBox="0 0 588.7 100.3" style="enable-background:new 0 0 588.7 100.3;" xml:space="preserve">
<g>
	<g>
		<path d="M138.7,31.3c-10.3,0-18.8,8.4-18.8,18.8s8.4,18.8,18.8,18.8c10.3,0,18.8-8.4,18.8-18.8S149,31.3,138.7,31.3z
			 M138.8,67.1c-9.3,0-16.9-7.6-16.9-16.9s7.6-16.9,16.9-16.9s16.9,7.6,16.9,16.9S148.1,67.1,138.8,67.1z"/>
		<path d="M138.8,4.2L138.8,4.2L1.4,4.2l30.3,22.4h67.8c-0.9,1.5-1.7,3.1-2.4,4.7H38.2l30.3,22.3h24.7
			c0.1,1.6,0.4,3.3,0.7,4.8H75.1l29.6,21.8c8.4,9.4,20.6,15.3,34.1,15.3c25.2,0,45.7-20.5,45.7-45.7C184.5,24.7,164,4.3,138.8,4.2z
			 M138.6,73.1c-12.8,0-23.2-10.4-23.2-23.2s10.4-23.2,23.2-23.2c12.8,0,23.2,10.4,23.2,23.2S151.5,73.1,138.6,73.1z"/>
	</g>
	<g>
		<polygon points="255.1,66.8 244.1,34.3 234,34.3 223.6,66.8 213.9,34.3 202.9,34.3 218.1,80.8 228.2,80.8 238.8,48.1 
			250.4,80.8 259.9,80.8 274.9,34.3 264.4,34.3 		"/>
		<path d="M312.3,37.5c-1.6-1.5-3.4-2.5-5.5-3.2c-2.1-0.7-4.2-1-6.4-1c-3.6,0-6.8,0.8-9.6,2.3c-2.1,1.2-3.7,2.6-4.8,4.3
			V7.5h-9.9v73.3h9.9V56.9c0-2.5,0.3-4.7,0.9-6.6c0.6-1.8,1.5-3.3,2.5-4.5c1.1-1.2,2.3-2,3.8-2.5c2.5-0.9,5.6-1.1,8.4-0.2
			c1.1,0.4,2.2,1,3,1.9c0.9,0.9,1.6,2,2.1,3.4c0.5,1.4,0.8,3.1,0.8,5.2v27.3h9.9V51.1c0-3.1-0.5-5.7-1.4-8
			C315.1,40.8,313.8,38.9,312.3,37.5z"/>
		<path d="M363,41c-1.8-2.3-4.2-4.2-7-5.7c-2.8-1.4-6.4-2.2-10.4-2.2c-3.4,0-6.7,0.6-9.6,1.9c-2.9,1.2-5.5,3-7.6,5.1
			c-2.1,2.2-3.8,4.8-5,7.7c-1.2,3-1.8,6.2-1.8,9.6c0,3.4,0.6,6.7,1.7,9.6c1.1,3,2.7,5.6,4.8,7.7c2.1,2.2,4.6,3.9,7.6,5.2
			c3,1.2,6.3,1.9,9.9,1.9c8.7,0,15.6-3.2,20.5-9.5l0.4-0.5l-7.5-5.7l-0.4,0.5c-1.6,2-3.4,3.6-5.3,4.8c-1.9,1.2-4.1,1.8-6.6,1.8
			c-1.9,0-3.7-0.3-5.5-0.9c-1.8-0.6-3.3-1.5-4.7-2.6c-1.3-1.1-2.4-2.4-3.2-3.9c-0.7-1.3-1.1-2.8-1.2-4.4h36.2v-3.7
			c0-3-0.4-5.9-1.2-8.8C366.2,46,364.9,43.3,363,41z M345.4,41.3c2.1,0,3.9,0.3,5.4,1c1.5,0.6,2.8,1.5,3.8,2.6
			c1,1.1,1.8,2.4,2.3,3.9c0.5,1.3,0.7,2.8,0.8,4.4h-25.7c0.1-1.2,0.4-2.5,0.9-3.7c0.6-1.5,1.5-2.8,2.7-4c1.1-1.2,2.6-2.2,4.2-3
			C341.6,41.7,343.4,41.3,345.4,41.3z"/>
		<path d="M411.2,41c-1.8-2.3-4.2-4.2-7-5.7c-2.8-1.4-6.4-2.2-10.4-2.2c-3.4,0-6.7,0.6-9.6,1.9c-2.9,1.2-5.5,3-7.6,5.1
			c-2.1,2.2-3.8,4.8-5,7.7c-1.2,2.9-1.8,6.2-1.8,9.6c0,3.4,0.6,6.7,1.7,9.6c1.1,3,2.7,5.6,4.8,7.7c2.1,2.2,4.6,3.9,7.6,5.2
			c3,1.2,6.3,1.9,9.9,1.9c8.7,0,15.6-3.2,20.5-9.5l0.4-0.5l-7.5-5.7l-0.4,0.5c-1.6,2-3.4,3.6-5.3,4.8c-1.9,1.2-4.1,1.8-6.6,1.8
			c-1.9,0-3.7-0.3-5.5-0.9c-1.8-0.6-3.3-1.5-4.7-2.6c-1.3-1.1-2.4-2.4-3.2-3.9c-0.7-1.3-1.1-2.8-1.2-4.4h36.2v-3.7
			c0-3-0.4-5.9-1.2-8.8C414.4,46,413.1,43.3,411.2,41z M393.6,41.3c2.1,0,3.9,0.3,5.4,1c1.5,0.6,2.8,1.5,3.8,2.6
			c1,1.1,1.8,2.4,2.3,3.9c0.5,1.3,0.7,2.8,0.8,4.4h-25.7c0.1-1.2,0.4-2.5,0.9-3.7c0.6-1.5,1.5-2.8,2.7-4c1.1-1.2,2.6-2.2,4.2-3
			C389.8,41.7,391.6,41.3,393.6,41.3z"/>
		<rect x="421.3" y="7.5" width="9.9" height="73.3"/>
		<polygon points="494.6,34.3 485.4,66.8 474.4,34.3 464.3,34.3 453.9,66.8 444.2,34.8 444.1,34.3 433.1,34.3 
			448.2,80.3 448.4,80.8 458.5,80.8 469,48.1 480.6,80.8 490.2,80.8 505.2,34.3 		"/>
		<path d="M545.1,41c-1.8-2.3-4.2-4.2-7-5.7c-2.8-1.4-6.4-2.2-10.4-2.2c-3.4,0-6.7,0.6-9.6,1.9c-2.9,1.2-5.5,3-7.6,5.1
			c-2.1,2.2-3.8,4.8-5,7.7c-1.2,2.9-1.8,6.2-1.8,9.6c0,3.4,0.6,6.7,1.7,9.6c1.1,3,2.7,5.6,4.8,7.7c2.1,2.2,4.6,3.9,7.6,5.2
			c3,1.2,6.3,1.9,9.9,1.9c8.7,0,15.6-3.2,20.5-9.5l0.4-0.5l-7.5-5.7l-0.4,0.5c-1.6,2-3.4,3.6-5.3,4.8c-1.9,1.2-4.1,1.8-6.6,1.8
			c-1.9,0-3.7-0.3-5.5-0.9c-1.8-0.6-3.3-1.5-4.7-2.6c-1.3-1.1-2.4-2.4-3.2-3.9c-0.7-1.3-1.1-2.8-1.2-4.4h36.2v-3.7
			c0-3-0.4-5.9-1.2-8.8C548.2,46,546.9,43.3,545.1,41z M527.4,41.3c2.1,0,3.9,0.3,5.4,1c1.5,0.6,2.8,1.5,3.8,2.6
			c1,1.1,1.8,2.4,2.3,3.9c0.5,1.3,0.7,2.8,0.8,4.4h-25.7c0.1-1.2,0.4-2.5,0.9-3.7c0.6-1.5,1.5-2.8,2.7-4c1.1-1.2,2.6-2.2,4.2-3
			C523.6,41.7,525.4,41.3,527.4,41.3z"/>
		<rect x="555.2" y="7.5" width="9.9" height="73.3"/>
		<rect x="573.3" y="7.5" width="9.9" height="73.3"/>
	</g>
</g>
</svg>
